<?xml version="1.0" encoding="utf-8"?>
<!-- Generator: Adobe Illustrator 19.1.0, SVG Export Plug-In . SVG Version: 6.00 Build 0)  -->
<svg version="1.1" id="Layer_1" xmlns="http://www.w3.org/2000/svg" xmlns:xlink="http://www.w3.org/1999/xlink" x="0px" y="0px"
	 viewBox="0 0 606.8 640" style="enable-background:new 0 0 606.8 640;" xml:space="preserve">
<style type="text/css">
	.st0{fill:#404041;}
	.st1{fill:#E3AD5D;}
</style>
<path class="st0" d="M0,0v606.6h211.3c-2.1-7.8-3.2-16-3.2-24.4c0-7.2,0.8-14.2,2.3-21H45.4V45.4h515.9v515.9H396.2
	c1.5,6.8,2.3,13.8,2.3,21c0,8.4-1.1,16.6-3.2,24.4h211.3v-22.7V0H0z"/>
<path class="st1" d="M360.4,582.2c0,31.5-25.6,57.1-57.1,57.1c-31.5,0-57.1-25.6-57.1-57.1c0-31.5,25.6-57.1,57.1-57.1
	C334.9,525.1,360.4,550.7,360.4,582.2"/>
<polygon class="st0" points="107.2,454.5 113.4,454.5 135.7,454.5 135.7,306.6 107.2,306.6 "/>
<polygon class="st0" points="499.5,333.7 499.5,306.6 415.6,306.6 415.6,454.5 421.8,454.5 499.5,454.5 499.5,427.2 444.1,427.2 
	444.1,387.6 499.5,387.6 499.5,360.2 444.1,360.2 444.1,333.7 "/>
<path class="st0" d="M250.1,375.4c1.9-1.6,3.7-3.4,5.1-5.4c4.3-6,6.3-13.4,6.3-21.5c0-6.8-1.4-13.3-4.2-19.2
	c-2.8-5.9-6.8-10.9-11.9-14.7l0,0l0,0c-4.2-3-9.1-5.1-14.5-6.3c-5.6-1.2-13.1-1.7-23.3-1.7h-34.4v147.9h6.2h28.2
	c6.8,0,12.6-0.2,17.5-0.6c5-0.4,9-1,12.4-1.9c6.5-1.8,12.3-5,16.9-9.5l0,0l0,0c4.1-4.1,7.4-9.1,9.6-14.8c2.3-5.7,3.4-11.7,3.4-17.8
	c0-10.1-2.7-19.2-8.3-26.3C256.6,380.2,253.5,377.5,250.1,375.4 M201.2,333h6.3c5.8,0,10.5,0.4,14,1.2c3.5,0.7,5.8,1.8,6.9,2.7
	c1.2,1,2.1,2.3,2.9,4.4c0.8,2.2,1.3,5.2,1.3,9c0,3.3-0.5,5.9-1.3,7.8c-0.8,1.9-1.8,3-3.2,4.1c-1.4,1-3.8,2-7.2,2.7
	c-3.5,0.7-8,1.1-13.4,1.1h-6.3V333z M236.2,418.9c-1.2,2.7-2.7,4.5-4.5,5.8l0,0l0,0c-1.3,0.9-3.4,1.9-6.6,2.4
	c-3.1,0.6-9.1,0.9-17.5,0.9h-6.3l0-37.1h6.3h4.7c5.8,0,10,0.3,12.1,0.7c2.2,0.4,4,1.1,5.5,2l0.1,0.1l0.1,0c2.7,1.5,4.5,3.4,5.9,6
	c1.4,2.6,2.2,5.8,2.2,10C238,413.3,237.4,416.3,236.2,418.9"/>
<path class="st0" d="M359.9,387.4c5.3-1.7,10-4.3,13.8-7.9c3.8-3.6,6.7-8,8.6-13.1c1.9-5,2.7-10.7,2.7-16.8c0-7.1-1.2-13.8-3.8-19.9
	c-2.6-6.1-6.3-11.3-11.2-15.1l0,0l0,0c-3.9-3-8.5-5.1-13.5-6.3c-5.2-1.2-12.1-1.7-21.4-1.7h-38v147.9h6.2H325v-55.6l42.5,55.6h36.4
	l-52.3-65.3C354.5,388.9,357.3,388.3,359.9,387.4 M331.2,365.6H325v-33h6.1c5.9,0,10.7,0.4,14.3,1.2c3.6,0.7,5.9,1.8,7,2.7
	c1.2,1,2.2,2.3,3,4.4c0.8,2.2,1.3,5.2,1.3,9c0,3.5-0.5,6.2-1.2,8.1c-0.7,1.9-1.6,3.1-2.7,3.9c-0.9,0.7-3.3,1.8-6.9,2.5
	C342.1,365.2,337.2,365.6,331.2,365.6"/>
<path class="st0" d="M217,249.1c8.4-2.7,16.2-6.7,23.4-11.9l2.6-1.8v-41.2l-10.9,12.6c-5.6,6.6-11.7,11.3-18.3,14.5
	c-6.6,3.2-13.6,4.7-21.4,4.8c-8.3,0-15.8-1.8-22.8-5.5c-7-3.7-12.9-8.9-17.8-15.9c-2.7-3.9-4.7-8.1-6.1-12.8
	c-1.4-4.7-2.1-9.9-2.1-15.7c0-7.4,1.2-13.9,3.5-19.7c2.3-5.9,5.7-11.1,10.4-16c4.4-4.6,9.6-8.1,15.7-10.7c6.1-2.6,12.2-3.9,18.5-3.9
	c8.1,0,15.3,1.5,21.8,4.5c6.5,3,12.7,7.6,18.8,14.2L243,156v-15.8V116l-2.6-1.8c-7.6-5.3-15.4-9.3-23.4-11.9
	c-8-2.6-16.2-3.9-24.7-3.9c-10.6,0-20.6,1.8-29.8,5.4c-9.2,3.6-17.5,9.1-25,16.3l0,0c-7.7,7.5-13.6,16-17.4,25.4
	c-3.8,9.4-5.7,19.7-5.7,30.8c0,12.9,2.8,24.9,8.5,35.8c5.7,10.9,14,20.1,24.6,27.5l0,0c6.4,4.4,13.3,7.8,20.7,10.1
	c7.4,2.3,15,3.5,22.8,3.5C200,253.1,208.7,251.7,217,249.1"/>
<path class="st0" d="M346.7,207.9l17.6,41.6h31L324.3,87l-5.7,13l-65.2,149.5h31l17.6-41.6H346.7z M324.3,153.6l12.2,28.1h-24.3
	L324.3,153.6z"/>
<polygon class="st0" points="490.6,249.5 490.6,221.8 439.4,221.8 439.4,101.6 411,101.6 411,249.5 417.1,249.5 "/>
</svg>
