<?xml version="1.0" encoding="utf-8"?>
<!-- Generator: Adobe Illustrator 19.1.0, SVG Export Plug-In . SVG Version: 6.00 Build 0)  -->
<svg version="1.1" id="Layer_1" xmlns="http://www.w3.org/2000/svg" xmlns:xlink="http://www.w3.org/1999/xlink" x="0px" y="0px"
	 viewBox="0 0 640 640" style="enable-background:new 0 0 640 640;" xml:space="preserve">
<style type="text/css">
	.st0{fill:none;stroke:#C3996B;stroke-width:20.8841;stroke-miterlimit:10;}
	.st1{fill:none;stroke:#C3996B;stroke-width:10.4421;stroke-miterlimit:10;}
	.st2{fill:none;stroke:#C3996B;stroke-width:21.0162;stroke-miterlimit:10;}
	.st3{fill:none;stroke:#C3996B;stroke-width:10.5081;stroke-miterlimit:10;}
</style>
<path class="st3" d="M284.5,395.7c0,33.6-27.2,60.9-60.9,60.9c-33.6,0-60.9-27.3-60.9-60.9c0-33.6,27.2-60.9,60.9-60.9
	C257.2,334.8,284.5,362,284.5,395.7z"/>
<path class="st3" d="M478.6,396.8c0,33.6-27.2,60.9-60.9,60.9c-33.6,0-60.9-27.2-60.9-60.9c0-33.6,27.2-60.9,60.9-60.9
	C451.4,336,478.6,363.2,478.6,396.8z"/>
<path class="st3" d="M222.1,164.4c0,0-59.3-3.9-59.3,59.3v173.2"/>
<path class="st3" d="M419.3,164.4c0,0,59.3-3.9,59.3,59.3v173.2"/>
<line class="st3" x1="282.5" y1="380.6" x2="357.7" y2="380.6"/>
<path class="st2" d="M624.8,319.8c0,169-137,306-306,306c-169,0-306-137-306-306c0-169,137-306,306-306
	C487.8,13.7,624.8,150.8,624.8,319.8z"/>
</svg>
