<?xml version="1.0" encoding="utf-8"?>
<!-- Generator: Adobe Illustrator 19.1.0, SVG Export Plug-In . SVG Version: 6.00 Build 0)  -->
<svg version="1.1" id="Layer_1" xmlns="http://www.w3.org/2000/svg" xmlns:xlink="http://www.w3.org/1999/xlink" x="0px" y="0px"
	 viewBox="0 0 640 640" style="enable-background:new 0 0 640 640;" xml:space="preserve">
<style type="text/css">
	.st0{fill:none;stroke:#C3996B;stroke-width:20.8841;stroke-miterlimit:10;}
	.st1{fill:none;stroke:#C3996B;stroke-width:10.4421;stroke-miterlimit:10;}
	.st2{fill:none;stroke:#C3996B;stroke-width:21.0162;stroke-miterlimit:10;}
	.st3{fill:none;stroke:#C3996B;stroke-width:10.5081;stroke-miterlimit:10;}
</style>
<g>
	<path class="st0" d="M624.5,320.4c0,168-136.2,304.1-304.1,304.1c-168,0-304.1-136.2-304.1-304.1c0-168,136.2-304.1,304.1-304.1
		C488.3,16.3,624.5,152.4,624.5,320.4z"/>
	<path class="st1" d="M445.8,237.5h-57v-20.6c0-10.2-8.3-18.5-18.5-18.5h-90.6c-10.2,0-18.5,8.3-18.5,18.5v20.6h-57
		c-27.3,0-49.5,22.1-49.5,49.4v109.9c0,27.3,22.1,49.5,49.5,49.5h241.7c27.3,0,49.4-22.1,49.4-49.5V286.9
		C495.2,259.6,473.1,237.5,445.8,237.5z"/>
	<path class="st1" d="M389.8,342.5c0,34.7-28.1,62.8-62.8,62.8c-34.7,0-62.8-28.1-62.8-62.8c0-34.7,28.1-62.8,62.8-62.8
		C361.7,279.7,389.8,307.8,389.8,342.5z"/>
</g>
</svg>
