<?xml version="1.0" encoding="utf-8"?>
<!-- Generator: Adobe Illustrator 19.1.0, SVG Export Plug-In . SVG Version: 6.00 Build 0)  -->
<svg version="1.1" id="Layer_1" xmlns="http://www.w3.org/2000/svg" xmlns:xlink="http://www.w3.org/1999/xlink" x="0px" y="0px"
	 viewBox="0 0 640 640" style="enable-background:new 0 0 640 640;" xml:space="preserve">
<style type="text/css">
	.st0{fill:none;stroke:#C3996B;stroke-width:20.8841;stroke-miterlimit:10;}
	.st1{fill:none;stroke:#C3996B;stroke-width:10.4421;stroke-miterlimit:10;}
	.st2{fill:none;stroke:#C3996B;stroke-width:21.0162;stroke-miterlimit:10;}
	.st3{fill:none;stroke:#C3996B;stroke-width:10.5081;stroke-miterlimit:10;}
</style>
<path class="st2" d="M625.6,320.8c0,169-137,306-306,306c-169,0-306-137-306-306c0-169,137-306,306-306
	C488.6,14.8,625.6,151.8,625.6,320.8z"/>
<path class="st3" d="M498.4,409V233c-75.4-75.4-171.6,0-171.6,0v176C326.8,409,414.8,325.4,498.4,409z"/>
<path class="st3" d="M326.8,409V233c-75.4-75.4-171.6,0-171.6,0v176C155.1,409,243.2,325.4,326.8,409z"/>
</svg>
